<svg width="33" height="32" viewBox="0 0 33 32" fill="none" xmlns="http://www.w3.org/2000/svg">
<path d="M27.0391 15.9554H5.96091C5.13081 15.9554 4.45532 16.6308 4.45532 17.4609C4.45532 18.291 5.13081 18.9665 5.96091 18.9665H27.0391C27.8692 18.9665 28.5447 18.291 28.5447 17.4609C28.5447 16.6308 27.8692 15.9554 27.0391 15.9554Z" fill="#888B97"/>
<path d="M27.1776 17.9819C26.9056 17.9056 26.6325 18.0602 26.5573 18.3272L26.5181 18.4647H6.48279L6.44266 18.3272C6.36738 18.0602 6.09237 17.9076 5.82236 17.9819C5.55535 18.0581 5.40178 18.3362 5.4781 18.6022L6.86121 23.4441C7.28978 24.9447 8.67897 25.9926 10.2388 25.9926H22.7602C24.3209 25.9926 25.7091 24.9447 26.1377 23.4441L27.5208 18.6022C27.5981 18.3362 27.4435 18.0581 27.1776 17.9819ZM10.2397 23.9851C9.57126 23.9851 8.97505 23.5364 8.79236 22.893L8.14096 20.6106C8.06469 20.3436 8.21925 20.0665 8.48522 19.9903C8.7542 19.914 9.03024 20.0695 9.10552 20.3356L9.75692 22.618C9.81916 22.8318 10.0169 22.9824 10.2397 22.9824C10.5167 22.9824 10.7416 23.2072 10.7416 23.4843C10.7416 23.7613 10.5168 23.9851 10.2397 23.9851Z" fill="#888B97"/>
<path d="M11.2034 25.041C10.9555 24.9196 10.6553 25.017 10.5299 25.2659L9.52616 27.2733C9.4027 27.5212 9.50306 27.8224 9.75101 27.9469C9.82426 27.983 9.90058 28.0001 9.97586 28.0001C10.1595 28.0001 10.3362 27.8987 10.4245 27.7221L11.4282 25.7146C11.5517 25.4666 11.4513 25.1655 11.2034 25.041Z" fill="#888B97"/>
<path d="M23.4738 27.2743L22.4701 25.2669C22.3457 25.0179 22.0445 24.9186 21.7966 25.042C21.5487 25.1665 21.4483 25.4676 21.5717 25.7155L22.5754 27.723C22.6638 27.8986 22.8404 28 23.0241 28C23.0994 28 23.1757 27.9829 23.249 27.9478C23.4969 27.8233 23.5973 27.5222 23.4738 27.2743Z" fill="#888B97"/>
<path d="M24.6151 4C24.1032 4 23.6214 4.19973 23.2591 4.5621L21.6662 6.15501C21.4705 6.35073 21.4705 6.66893 21.6662 6.86465C21.8619 7.06038 22.1801 7.06038 22.3758 6.86465L23.9687 5.27274C24.1403 5.10011 24.3702 5.00474 24.6201 5.00474C25.124 5.00474 25.5335 5.41426 25.5335 5.91811V16.4572C25.5335 16.7342 25.7583 16.9591 26.0354 16.9591C26.3124 16.9591 26.5372 16.7342 26.5382 16.4562V5.91713C26.5383 4.86021 25.6791 4 24.6151 4Z" fill="#888B97"/>
<path d="M22.8776 6.65687L21.8739 5.65317C21.7595 5.53874 21.5999 5.48553 21.4373 5.51263L18.928 5.92417C18.7433 5.95428 18.5917 6.08475 18.5325 6.26142C18.4733 6.43809 18.5185 6.63481 18.649 6.76829L21.6601 9.86979C21.7555 9.96916 21.887 10.0224 22.0195 10.0224C22.0666 10.0224 22.1148 10.0154 22.162 10.0013C22.3406 9.94911 22.4761 9.80157 22.5123 9.61887L23.0141 7.10958C23.0472 6.94594 22.996 6.77628 22.8776 6.65687Z" fill="#888B97"/>
<path d="M16.3525 10.0805C16.1567 9.88481 15.8385 9.88481 15.6428 10.0805L14.6391 11.0842C14.4434 11.28 14.4434 11.5982 14.6391 11.7939C14.7375 11.8912 14.8659 11.9405 14.9944 11.9405C15.1229 11.9405 15.2514 11.8913 15.3488 11.7939L16.3525 10.7902C16.5482 10.5944 16.5482 10.2763 16.3525 10.0805Z" fill="#888B97"/>
<path d="M18.3599 12.088C18.1641 11.8922 17.846 11.8922 17.6502 12.088L16.6465 13.0917C16.4508 13.2874 16.4508 13.6056 16.6465 13.8013C16.7449 13.8987 16.8733 13.9479 17.0018 13.9479C17.1303 13.9479 17.2588 13.8987 17.3562 13.8013L18.3599 12.7976C18.5556 12.6019 18.5556 12.2837 18.3599 12.088Z" fill="#888B97"/>
<path d="M19.3636 9.07679C19.1679 8.88106 18.8497 8.88106 18.654 9.07679L17.6503 10.0805C17.4545 10.2762 17.4545 10.5944 17.6503 10.7901C17.7487 10.8875 17.8771 10.9367 18.0056 10.9367C18.1341 10.9367 18.2625 10.8875 18.3599 10.7901L19.3636 9.78644C19.5594 9.59071 19.5594 9.27251 19.3636 9.07679Z" fill="#888B97"/>
</svg>
