<svg width="32" height="32" viewBox="0 0 32 32" fill="none" xmlns="http://www.w3.org/2000/svg">
<path d="M27.3838 10.6285L17.357 4.37926C16.5309 3.86914 15.4665 3.87435 14.6453 4.39021L4.60816 10.6338C3.98491 11.0255 3.81269 11.8251 4.22273 12.4197C4.63331 13.0143 5.47088 13.1792 6.09468 12.7869L16.0105 6.61848L25.9142 12.7921C26.1417 12.9324 26.3959 12.9987 26.6474 12.9987C27.0913 12.9987 27.5243 12.7916 27.7829 12.4108C28.1886 11.8131 28.0092 11.0161 27.3838 10.6285Z" fill="#888B97"/>
<path d="M24.2107 18.7531C24.1341 18.3031 23.7525 17.9702 23.3075 17.9702H22.7961L22.6017 15.8962C22.3942 13.6781 20.5985 12 18.4248 12H13.5761C11.4019 12 9.60672 13.6786 9.39869 15.8962L9.20486 17.9702H8.69289C8.2474 17.9702 7.86634 18.3031 7.78871 18.7531L7.02761 23.1768C6.93323 23.725 7.08444 24.2895 7.43353 24.715C7.76943 25.1249 8.26414 25.3694 8.78169 25.3876V26.1221C8.78169 27.1619 9.59454 28 10.6098 28H11.1873C12.2016 28 13.0266 27.1619 13.0266 26.1221V25.3995H18.9794V26.1205C18.9794 27.1609 19.7978 28 20.8121 28H21.39C22.4043 28 23.2238 27.1609 23.2238 26.1205V25.3876C23.7413 25.3694 24.233 25.127 24.5679 24.7176C24.917 24.291 25.0662 23.7297 24.9728 23.1804L24.2107 18.7531ZM10.3907 23.6933C9.53467 23.6933 8.84055 22.9822 8.84055 22.1036C8.84055 21.225 9.53467 20.5134 10.3907 20.5134C11.2471 20.5134 11.9418 21.2245 11.9418 22.1036C11.9418 22.9822 11.2471 23.6933 10.3907 23.6933ZM10.7773 17.9702L10.9564 16.0569C11.0868 14.6659 12.2127 13.6183 13.5761 13.6183H13.8557V14.2196C13.8557 14.7414 14.2601 15.157 14.7685 15.157H17.2324C17.7408 15.157 18.1523 14.7414 18.1523 14.2196V13.6188H18.4248C19.7882 13.6188 20.9141 14.6665 21.044 16.0575L21.2236 17.9707L10.7773 17.9702ZM21.6082 23.6933C20.7522 23.6933 20.0581 22.9822 20.0581 22.1036C20.0581 21.225 20.7522 20.5134 21.6082 20.5134C22.4647 20.5134 23.1593 21.2245 23.1593 22.1036C23.1593 22.9822 22.4647 23.6933 21.6082 23.6933Z" fill="#888B97"/>
</svg>
