<svg width="33" height="32" viewBox="0 0 33 32" fill="none" xmlns="http://www.w3.org/2000/svg">
<path d="M27.2884 9.00006H22.9324C22.2631 9.00006 21.7207 9.53672 21.7207 10.1996V13.3136H18.5759C17.9064 13.3136 17.3641 13.85 17.3641 14.513V17.6271H14.2192C13.5497 17.6271 13.0075 18.1644 13.0075 18.8266V22.0907H9.71171C9.39012 22.0907 9.08195 22.217 8.85482 22.4417C8.6275 22.6665 8.5 22.973 8.5 23.2902L8.50039 25.7999C8.50039 26.4635 9.04297 27.0001 9.71206 27.0001H27.2884C27.9579 27.0001 28.5 26.4635 28.5 25.7999V10.1996C28.5001 9.53672 27.9579 9.00006 27.2884 9.00006Z" fill="#888B97"/>
<path d="M21.264 5.24536C20.9425 4.92395 20.4158 4.91777 20.0863 5.23049C14.7431 10.3055 9.65982 15.2624 4.74409 20.055C4.58768 20.2075 4.5 20.4146 4.5 20.6297V26.1877C4.5 26.6356 4.87278 27.0001 5.33294 27.0001C5.79264 27.0001 6.16608 26.6358 6.16608 26.1877V20.9657C11.002 16.2504 16.0017 11.378 21.2485 6.39375C21.5778 6.08108 21.5845 5.56658 21.264 5.24536Z" fill="#888B97"/>
</svg>
